# xmcd CD database file
#
# Track frame offsets:
#	183
#	16018
#	25620
#	38353
#	50360
#	59338
#	72353
#	85423
#	97735
#	111995
#	125408
#	148108
#	161645
#
# Disc length: 2387 seconds
#
# Revision: 0
# Processed by: cddbd v1.4PL0 Copyright (c) Steve Scherf et al.
# Submitted via: Feurio! 1.65 - http://www.feurio.com
#
DISCID=a009510d
DTITLE=Tav Falco and Panther Burns - Life Sentence
DYEAR=1992
DGENRE=Rock 'n' Roll
TTITLE0=My Mind was messed up at the time 
TTITLE1=Torture
TTITLE2=Vampire from Havana 
TTITLE3=Make me know you're mine 
TTITLE4=Go on Home 
TTITLE5=Auto Sapiens 
TTITLE6=Guarda Che Luna 
TTITLE7=Oh, Girls, Girls 
TTITLE8=(I'm gonna) Dig Myself a Hole 
TTITLE9=Sent Up
TTITLE10=What's Wrong?
TTITLE11=Why was I born 
TTITLE12=Only the lonely 
EXTD=
EXTT0=
EXTT1=
EXTT2=
EXTT3=
EXTT4=
EXTT5=
EXTT6=
EXTT7=
EXTT8=
EXTT9=
EXTT10=
EXTT11=
EXTT12=
PLAYORDER=
